<?xml version="1.0" encoding="UTF-8" standalone="no"?>
<svg width="120px" height="120px" viewBox="0 0 120 120" version="1.1" xmlns="http://www.w3.org/2000/svg" xmlns:xlink="http://www.w3.org/1999/xlink">
    <!-- Generator: Sketch 43.2 (39069) - http://www.bohemiancoding.com/sketch -->
    <title>Combined Shape</title>
    <desc>Created with Sketch.</desc>
    <defs></defs>
    <g id="Mirror-LP" stroke="none" stroke-width="1" fill="none" fill-rule="evenodd">
        <g id="Desktop-HD" transform="translate(-674.000000, -811.000000)" fill="#A9A9A9">
            <path d="M734,930.049285 C700.862915,930.049285 674,903.18637 674,870.049285 C674,853.480742 680.715729,838.480742 691.573593,827.622878 C702.431458,816.765014 721.603848,811.375499 734,811.049285 C746.396152,810.72307 762,812.049285 754,814.049285 C746,816.049285 729.705184,827.622878 739,827.622878 C759,827.622878 771.591927,822.788398 776.426407,827.622878 C787.284271,838.480742 794,853.480742 794,870.049285 C794,903.18637 767.137085,930.049285 734,930.049285 Z M737.419355,854.049285 C740.412382,854.049285 742.83871,851.622957 742.83871,848.62993 C742.83871,847.130767 741.479069,843.224455 740.121836,839.698524 C738.7694,836.185056 737.419355,833.049285 737.419355,833.049285 C737.419355,833.049285 732,845.636903 732,848.62993 C732,851.622957 734.426328,854.049285 737.419355,854.049285 Z" id="Combined-Shape"></path>
        </g>
    </g>
</svg>