<?xml version="1.0" encoding="UTF-8" standalone="no"?>
<svg width="126px" height="125px" viewBox="0 0 126 125" version="1.1" xmlns="http://www.w3.org/2000/svg" xmlns:xlink="http://www.w3.org/1999/xlink">
    <!-- Generator: Sketch 43.2 (39069) - http://www.bohemiancoding.com/sketch -->
    <title>Oval Copy 2</title>
    <desc>Created with Sketch.</desc>
    <defs>
        <linearGradient x1="50%" y1="0%" x2="50%" y2="100%" id="linearGradient-1">
            <stop stop-color="#B3B3B3" offset="0%"></stop>
            <stop stop-color="#FFFFFF" offset="100%"></stop>
        </linearGradient>
        <linearGradient x1="50%" y1="0%" x2="50%" y2="100%" id="linearGradient-2">
            <stop stop-color="#B3B3B3" offset="0%"></stop>
            <stop stop-color="#FFFFFF" offset="100%"></stop>
        </linearGradient>
    </defs>
    <g id="Mirror-LP" stroke="none" stroke-width="1" fill="none" fill-rule="evenodd">
        <g id="Desktop-HD" transform="translate(-579.000000, -278.000000)" stroke="url(#linearGradient-2)" stroke-width="6" fill="url(#linearGradient-1)">
            <path d="M642,399.86661 C675.137085,399.86661 702,373.003695 702,339.86661 C702,323.298068 695.284271,308.298068 684.426407,297.440203 C678.899725,291.913521 672.299883,287.459999 664.966271,284.419028 C661.376498,282.930484 657.610909,281.780397 653.709311,281.008572 C650.261406,280.326498 620.176927,320.555578 635.945883,327.767243 C636.726256,328.124133 638,329 642,329 C646,329 647.906275,327.887966 648.71737,327.429544 C662.947996,319.386556 633.688122,280.336482 630.290689,281.008572 C626.389091,281.780397 622.623502,282.930484 619.033729,284.419028 C611.700117,287.459999 605.100275,291.913521 599.573593,297.440203 C588.715729,308.298068 582,323.298068 582,339.86661 C582,373.003695 608.862915,399.86661 642,399.86661 Z" id="Oval-Copy-2"></path>
        </g>
    </g>
</svg>