<?xml version="1.0" encoding="UTF-8" standalone="no"?>
<svg width="122px" height="122px" viewBox="0 0 122 122" version="1.1" xmlns="http://www.w3.org/2000/svg" xmlns:xlink="http://www.w3.org/1999/xlink">
    <!-- Generator: Sketch 43.2 (39069) - http://www.bohemiancoding.com/sketch -->
    <title>Group</title>
    <desc>Created with Sketch.</desc>
    <defs>
        <linearGradient x1="20.8414714%" y1="8.82324219%" x2="87.9475911%" y2="83.0371094%" id="linearGradient-1">
            <stop stop-color="#FFFFFF" offset="0%"></stop>
            <stop stop-color="#B3B3B3" offset="100%"></stop>
        </linearGradient>
        <linearGradient x1="88.2275391%" y1="19.4124349%" x2="13.1461589%" y2="83.3691406%" id="linearGradient-2">
            <stop stop-color="#FFFFFF" offset="0%"></stop>
            <stop stop-color="#B3B3B3" offset="100%"></stop>
        </linearGradient>
    </defs>
    <g id="Mirror-LP" stroke="none" stroke-width="1" fill="none" fill-rule="evenodd">
        <g id="Desktop-HD" transform="translate(-887.000000, -180.000000)" stroke="#979797" stroke-width="2">
            <g id="Group" transform="translate(888.000000, 181.000000)">
                <circle id="Oval-Copy-2" fill="url(#linearGradient-1)" transform="translate(60.000000, 60.000000) scale(1, -1) translate(-60.000000, -60.000000) " cx="60" cy="60" r="60"></circle>
                <path d="M60,120 C93.137085,120 120,93.137085 120,60 C120,26.862915 93.137085,0 60,0 C56.5012529,0 75.7382427,6.01468278 74,22 C72.576382,35.0919495 57.3566448,42.3342594 41.0873479,47.141005 C21.3184969,52.9816899 -1.13686838e-13,55.2263318 -1.13686838e-13,60 C-1.13686838e-13,93.137085 26.862915,120 60,120 Z" id="Oval-Copy-3" fill="url(#linearGradient-2)" transform="translate(60.000000, 60.000000) scale(1, -1) translate(-60.000000, -60.000000) "></path>
            </g>
        </g>
    </g>
</svg>